<svg width="23" height="21" viewBox="0 0 23 21" fill="none" xmlns="http://www.w3.org/2000/svg">
<g clip-path="url(#clip0_20702_31)">
<path d="M6.28156 15.4477C7.87576 16.8769 9.60506 18.1475 11.445 19.2417C13.285 18.1475 15.0143 16.8768 16.6086 15.4476C20.2365 12.1823 21.8899 9.091 21.89 6.26265C21.8896 5.13708 21.5285 4.04098 20.8596 3.13573C20.1906 2.23041 19.249 1.56337 18.1731 1.23252C17.0971 0.90166 15.9435 0.924417 14.8814 1.29744C13.8193 1.67047 12.9048 2.37412 12.2721 3.30512L11.445 4.52202L10.6179 3.30512C9.98519 2.37412 9.07067 1.67047 8.0086 1.29744C6.94654 0.924417 5.79287 0.90166 4.71692 1.23252C3.64097 1.56337 2.69941 2.23041 2.03044 3.13573C1.36153 4.04098 1.00038 5.13708 1 6.26265C1.00011 9.09103 2.65353 12.1824 6.28156 15.4477Z" stroke="#FCC436" stroke-width="2"/>
</g>
<defs>
<clipPath id="clip0_20702_31">
<rect width="23" height="21" fill="white"/>
</clipPath>
</defs>
</svg>
